<?xml version="1.0" encoding="UTF-8"?>
<svg xmlns="http://www.w3.org/2000/svg" xmlns:xlink="http://www.w3.org/1999/xlink" width="365pt" height="100.1pt" viewBox="0 0 365 100.1" version="1.1">
<g id="surface1">
<path style=" stroke:none;fill-rule:nonzero;fill:rgb(95.298767%,55.699158%,65.899658%);fill-opacity:1;" d="M 194 23.445313 L 195.796875 18.175781 L 218.914063 18.125 L 216.875 23.652344 Z M 170.480469 26.761719 L 181.097656 26.652344 L 183.664063 20.277344 L 174.898438 20.347656 L 176.691406 15.269531 L 191.351563 15.214844 L 186.675781 26.667969 L 190.339844 26.6875 L 188.460938 31.992188 L 168.59375 32.132813 Z M 219.183594 32.800781 L 227.703125 9.730469 L 233.53125 9.910156 L 231.519531 16.078125 C 238.039063 18.671875 238.117188 19.101563 241.367188 21.652344 L 237.121094 26.414063 C 236.402344 25.804688 233.765625 22.921875 229.433594 21.183594 L 225.078125 32.96875 Z M 144.457031 26.710938 L 145.984375 21.5 L 154.972656 21.03125 L 155.601563 19.070313 L 147.660156 19.558594 L 149.066406 14.234375 L 156.828125 13.640625 L 158.054688 9.472656 L 163.664063 9.046875 L 162.824219 13.027344 L 171.261719 12.519531 L 169.507813 17.941406 L 161.515625 18.503906 L 160.925781 20.472656 L 170.179688 19.898438 L 168.5 25.117188 L 159.660156 25.957031 L 157.867188 32.847656 L 152.066406 32.808594 L 153.65625 26.390625 Z M 111.050781 47.296875 L 140.085938 47.25 L 135.589844 63.457031 L 106.816406 63.519531 Z M 40.390625 95.640625 C 29.171875 91.0625 20.707031 84.945313 17.078125 75.5625 C 12.535156 62.421875 15.109375 52.496094 17.425781 46.03125 C 18.777344 42.269531 20.757813 36.949219 20.699219 36.84375 C 20.699219 36.84375 17.859375 37.28125 15.039063 37.039063 C 11.46875 36.726563 7.976563 36.628906 5.53125 34.667969 C -0.867188 29.539063 -0.695313 24.367188 1.015625 18.765625 C 2.777344 13.011719 13.265625 5.269531 14.417969 5.351563 C 15.886719 5.457031 23.429688 5.402344 23.429688 5.402344 C 23.429688 5.402344 18.671875 10.957031 16.601563 14.398438 C 12.1875 21.734375 12.433594 25.878906 15.441406 30.246094 C 16.238281 31.410156 20.890625 33.144531 24.871094 29.011719 C 27.480469 26.300781 29.140625 20.035156 27.722656 15.292969 C 27.296875 11.683594 21.890625 11.855469 21.890625 11.855469 L 22.003906 9.601563 L 34.882813 7.128906 C 35.820313 6.949219 39.179688 8.59375 40.671875 13.285156 C 41.617188 16.261719 40.992188 18.378906 40.992188 18.378906 C 40.992188 18.378906 50.796875 12.914063 54.367188 12.09375 C 60.480469 10.042969 70.097656 6.984375 85.667969 7.207031 C 92.003906 7.289063 96.410156 7.453125 101.023438 7.8125 L 103.253906 0.234375 L 115.796875 0.00390625 L 104.964844 46.382813 L 93.425781 46.113281 C 92.546875 46.09375 94.773438 37.160156 93.386719 31.730469 C 93.113281 27.664063 91.160156 14.800781 73.101563 19.703125 C 66.960938 21.941406 62 26.179688 54.703125 34.664063 C 47.214844 43.683594 43.695313 53.054688 43.554688 62.574219 C 43.566406 70.792969 45.199219 76.359375 50.417969 81.371094 C 54.285156 85.089844 59.429688 86.46875 61.882813 86.625 C 65.203125 86.839844 69.496094 86.433594 75.085938 84.042969 C 78.796875 82.453125 84.277344 78.890625 87.3125 76.332031 L 93.742188 71.28125 L 105.816406 79.035156 C 99.421875 85.851563 94.855469 89.132813 88.523438 91.953125 C 80.09375 96.484375 68.496094 98.109375 59.054688 98.210938 C 49.90625 98.164063 47.917969 97.582031 40.390625 95.640625 Z M 192.875 81.789063 C 192.820313 77.964844 193.425781 73.574219 193.746094 70.15625 C 193.746094 70.15625 184.269531 81.675781 178.332031 87.300781 C 173.613281 91.769531 163.5625 98.113281 157.035156 98.460938 C 148.132813 98.9375 140.371094 91.644531 140.152344 81.40625 C 140.101563 78.941406 140.3125 76.625 141.265625 72.753906 C 141.929688 68.90625 143.953125 62.636719 145.347656 57.628906 C 147.058594 51.480469 148.863281 46.023438 151.347656 38.367188 L 173.285156 38.515625 C 170.472656 48.582031 167.117188 59.882813 165.003906 68.761719 C 163.296875 75.042969 163.746094 78.164063 167.445313 79.816406 C 171.542969 80.890625 174.125 79.597656 179.859375 73.535156 C 193.574219 59.039063 203.484375 38.410156 204.371094 38.4375 L 224.703125 38.554688 L 219.308594 60.550781 C 214.425781 79.828125 213.78125 84.25 216.296875 86.898438 C 218.867188 89.601563 222.027344 89.644531 228.46875 86.035156 L 235.375 82.164063 C 235.375 82.164063 235.253906 77.089844 235.6875 73.578125 C 236.160156 69.753906 237.976563 63.046875 240.921875 50.496094 C 241.03125 50.023438 241.957031 46.683594 237.65625 46.453125 L 232.574219 46.179688 L 234.28125 36.664063 L 244.796875 36.632813 L 249.125 19.574219 L 272.945313 19.566406 L 269.933594 33 C 269.398438 36.296875 270.351563 36.390625 273.332031 36.417969 L 295.316406 36.433594 L 293.550781 45.8125 L 285.585938 46.140625 C 279.988281 45.832031 273.214844 48.59375 270.246094 51.003906 C 268.8125 52.167969 263.359375 55.914063 261.777344 62.71875 C 260.539063 67.363281 260.179688 73.265625 259.683594 76.953125 C 258.195313 88.023438 262.035156 93.167969 276.246094 84.539063 L 285.8125 78.738281 C 285.152344 77.144531 285.007813 74.957031 285.023438 71.832031 C 285.085938 60.488281 292.5 53.429688 299.367188 48.257813 C 310.933594 39.546875 323.460938 38.40625 331.625 38.050781 C 338.949219 37.730469 343.941406 38.882813 348.15625 40.175781 C 356.195313 42.640625 363.144531 47.886719 364.496094 56.214844 C 365.445313 60.910156 364.972656 64.6875 363.730469 69.847656 L 315.445313 69.871094 L 316.785156 64.019531 L 324.679688 64.019531 C 337.871094 64.019531 343.753906 58.019531 343.167969 52.425781 C 342.117188 42.351563 326.449219 40.941406 315.761719 54.042969 C 313.160156 58.164063 309.542969 61.792969 309.328125 72.164063 C 309.316406 82.078125 315.097656 89.292969 324.804688 90.25 C 334.882813 90.292969 344.914063 86.667969 353.078125 78.765625 L 360.117188 87.144531 C 353.378906 91.101563 354.308594 90.722656 353.09375 91.324219 C 338.730469 97.78125 329.835938 98.910156 322.570313 99.207031 C 315.558594 99.492188 299.601563 97.03125 294.070313 92.503906 C 289.164063 88.484375 287.71875 85.785156 287.695313 85.714844 C 287.695313 85.714844 280.671875 89.863281 275.402344 92.933594 C 266.992188 97.832031 258.875 99.929688 252.726563 100 C 247.0625 100.0625 243.378906 99.015625 240.535156 95.140625 C 238.640625 92.5625 237.324219 88.695313 237.324219 88.695313 C 237.324219 88.695313 229.828125 93.5625 225.46875 95.625 C 222.96875 96.992188 216.027344 100.011719 208.480469 100.101563 C 203.566406 99.394531 199.984375 99.035156 197.558594 96.582031 C 193.660156 92.640625 192.84375 85.59375 192.875 81.789063 "/>
</g>
</svg>
